<svg version="1.1" xmlns="http://www.w3.org/2000/svg" xmlns:xlink="http://www.w3.org/1999/xlink" width="23.46183" height="13.87485" viewBox="0,0,23.46183,13.87485"><defs><linearGradient x1="298.04441" y1="180.19482" x2="318.88256" y2="180.19482" gradientUnits="userSpaceOnUse" id="color-1"><stop offset="0" stop-color="#a83b03"/><stop offset="1" stop-color="#a80372"/></linearGradient><linearGradient x1="296.57889" y1="179.74853" x2="320.04072" y2="179.74853" gradientUnits="userSpaceOnUse" id="color-2"><stop offset="0" stop-color="#038c26"/><stop offset="1" stop-color="#1cc87d"/></linearGradient></defs><g transform="translate(-296.57889,-172.81111)"><g data-paper-data="{&quot;isPaintingLayer&quot;:true}" fill-rule="nonzero" stroke="none" stroke-width="0.5" stroke-linecap="butt" stroke-linejoin="miter" stroke-miterlimit="10" stroke-dasharray="" stroke-dashoffset="0" style="mix-blend-mode: normal"><path d="M317.00602,181.14011c-0.06271,-0.00053 -0.12535,-0.00047 -0.18794,0.00012c-0.12194,0.03995 -0.26521,0.08341 -0.42553,0.15157l-0.06187,-0.00563l0.00326,0.01922l-0.54416,0.09203c-0.00789,0.00149 -0.0158,0.00278 -0.02373,0.00387c-0.07493,0.02796 -0.14853,0.05747 -0.22046,0.08887c-0.64201,0.52631 -1.51623,0.87549 -2.47143,1.13112c-0.0047,0.00415 -0.0095,0.00824 -0.01439,0.01225c-0.07225,0.05923 -0.15613,0.09485 -0.24226,0.10779l-0.54507,0.09219l-0.00346,-0.02042c-0.01907,0.00406 -0.03815,0.00809 -0.05725,0.0121l-0.02813,0.01529c-0.00443,-0.00221 -0.00886,-0.00442 -0.01329,-0.00664c-1.36634,0.28381 -2.79784,0.43879 -3.89788,0.68412c-0.34612,0.07719 -0.85536,0.35776 -1.34134,0.53948c-0.25048,0.16642 -0.55371,0.31056 -0.9524,0.48308l-0.20524,0.08881c-0.4993,0.61633 -1.70923,0.7891 -2.34149,1.00278l-0.44134,0.19098c-0.15845,0.0729 -0.34453,0.05729 -0.48845,-0.03991c-1.22595,0.6301 -2.45562,0.95097 -2.78892,0.11332c-0.0194,-0.04876 -0.0125,-0.11954 0.01233,-0.20462c-0.51719,-0.11179 -0.78795,-0.60197 -0.41017,-1.42011c0.55229,-1.19605 3.08592,-6.12683 0.8485,-6.61891l-0.13153,0.05692c-0.20166,0.09277 -0.44808,0.0422 -0.59539,-0.1375c-0.11178,-0.13635 -0.13947,-0.31406 -0.08931,-0.47031l0.08605,-0.28206c-0.30578,-0.38497 -1.43152,-2.32895 -1.3881,-2.46009c0.22426,-0.67723 1.72473,-0.24373 2.15061,-0.13867c1.8592,0.45867 4.04701,0.5486 5.96592,0.7346c1.06076,0.20231 2.11331,0.48371 3.15332,0.81494c0.01698,-0.01897 0.03563,-0.03687 0.05593,-0.05351c0.16895,-0.1385 0.40141,-0.1479 0.57784,-0.04005l0.5048,0.29262l-0.00378,0.00653l0.0182,0.00216c0.19496,0.13131 0.36365,0.25077 0.51411,0.36564c0.9068,0.33292 1.80197,0.69253 2.68249,1.05859c0.36986,0.15376 0.91409,0.31817 1.41892,0.53259c0.00493,0.00188 0.00984,0.00384 0.01472,0.00588l0.65752,0.26034l-0.02495,0.06302c0.02085,0.01319 0.04136,0.02656 0.06152,0.04008c0.23906,0.05217 0.47226,0.12393 0.69442,0.22322l0.55958,0.2502c0.07234,0.03054 0.13852,0.07862 0.19176,0.14357c0.05717,0.06974 0.09235,0.1503 0.10636,0.23327c0.13523,0.03167 0.26117,0.06772 0.37783,0.10743c0.20554,0.03869 0.40986,0.05079 0.60954,0.02616c0,0 0.49757,-0.04927 0.54684,0.4483c0.01585,0.16008 -0.0249,0.27375 -0.08747,0.35431c0.16735,0.52911 -0.42574,1.05245 -1.7856,1.04903zM300.24974,184.64924c0.00489,-0.00212 0.0098,-0.00425 0.01469,-0.00637c0.0038,-0.00707 0.00755,-0.01407 0.01123,-0.02101c-0.00403,-0.00129 -0.00805,-0.00262 -0.01205,-0.00402c-0.01007,0.02185 -0.0149,0.03268 -0.01387,0.03139zM303.82197,177.61574c0.01221,0.01069 0.02441,0.02143 0.03659,0.03223c0.00322,-0.01069 0.00647,-0.02132 0.00978,-0.03185c-0.01547,-0.00011 -0.03092,-0.00024 -0.04636,-0.00038z" fill="url(#color-1)"/><path d="M304.86428,173.8368c0,0 0.27548,0.02728 0.39619,0.24624c0.14246,0.00271 0.27898,0.0091 0.40584,0.02266c3.95071,1.72134 9.76106,2.28837 13.51778,4.89296c0.06137,0.01556 0.12165,0.03478 0.18054,0.058l0.62104,0.55746c-0.05649,0.02836 -0.11235,0.05437 -0.1676,0.07811l-0.29177,0.13598c0.1488,-0.00363 0.41925,0.03998 0.4981,0.38758c0.11059,0.48761 -0.37702,0.59821 -0.37702,0.59821c-4.60505,1.03363 -9.01828,3.25665 -13.67067,4.32164c-1.60144,0.36323 -5.75059,2.33401 -6.92804,1.20524c-0.17927,0.04124 -0.37462,-0.0184 -0.49915,-0.17031c-0.12654,-0.15436 -0.14532,-0.36175 -0.06536,-0.53097l0.23858,-0.53358l0.041,0.01834c0.49469,-2.02745 1.37707,-3.89642 1.84152,-5.91601c0.09722,-0.42275 -0.74013,-0.71294 -0.81718,-0.80337c-0.97532,-1.14474 -2.55337,-2.99463 -3.20919,-4.25114c0.88536,-0.42913 1.98987,-0.91554 3.00001,-0.7808l-0.05295,-0.10464c0.07907,-0.00783 0.15809,-0.0142 0.23704,-0.01921l0.00543,-0.03974c0,0 0.05479,-0.01242 0.13181,-0.01059l0.00986,-0.08286c0,0 0.20408,-0.45645 0.66054,-0.25237c0.22144,0.09901 0.28742,0.25741 0.29666,0.39427c0.6792,0.04791 1.35612,0.163 2.03371,0.28181c0.11177,-0.05411 0.22353,-0.10824 0.3353,-0.16235l0.18594,-0.04217c0,0 0.48761,-0.1106 0.59822,0.37701c0.0013,0.00571 0.00251,0.01138 0.00364,0.01698c0.2796,0.04265 0.55959,0.07998 0.84018,0.10758zM298.20729,174.59797c0.73995,0.53004 1.69292,1.96574 1.92144,2.32842c0.48499,0.7697 1.51686,1.39993 1.47165,2.38052c-0.06822,1.47963 -1.26064,3.37105 -1.62074,4.83869c-0.08764,0.35721 -0.02092,0.83425 -0.18766,1.12742c0.00413,0.00864 0.00795,0.01731 0.01149,0.02597c0.08726,0.05616 0.1645,0.15184 0.2009,0.31232c0.03221,0.14201 0.01368,0.25203 -0.02876,0.33667c0.36394,-0.06921 1.13811,-0.53739 1.40082,-0.65849c1.28147,-0.59071 2.99847,-0.81592 4.37907,-1.12905c4.49504,-1.00894 8.74683,-3.10913 13.1759,-4.20383c-0.27306,-0.06781 -0.59275,-0.00654 -0.84663,0.10786c0,0 -0.46707,0.17845 -0.64552,-0.28862c-0.04194,-0.10977 -0.04822,-0.20359 -0.0333,-0.28291c-0.4713,-0.22969 -0.94723,-0.51692 -1.46985,-0.75048c-3.43151,-1.53361 -7.24781,-2.15471 -10.52648,-3.67025c-0.91392,-0.08166 -1.79231,0.05299 -2.62499,-0.25785c-1.20294,0.12785 -2.45217,0.03432 -3.64696,0.19733l-0.45673,-0.4614c-0.16561,0.02274 -0.32614,0.04008 -0.47367,0.04768z" fill="url(#color-2)"/></g></g></svg>