<svg version="1.1" xmlns="http://www.w3.org/2000/svg" xmlns:xlink="http://www.w3.org/1999/xlink" width="57.41353" height="57.41353" viewBox="0,0,57.41353,57.41353"><defs><linearGradient x1="290.16823" y1="178.13255" x2="347.58177" y2="178.13255" gradientUnits="userSpaceOnUse" id="color-1"><stop offset="0" stop-color="#8dc63f"/><stop offset="1" stop-color="#006838"/></linearGradient><radialGradient cx="318.875" cy="178.13255" r="23.47965" gradientUnits="userSpaceOnUse" id="color-2"><stop offset="0" stop-color="#d7df23"/><stop offset="1" stop-color="#009444"/></radialGradient></defs><g transform="translate(-290.16823,-149.42523)"><g data-paper-data="{&quot;isPaintingLayer&quot;:true}" fill-rule="nonzero" stroke="none" stroke-width="1" stroke-linecap="butt" stroke-linejoin="miter" stroke-miterlimit="10" stroke-dasharray="" stroke-dashoffset="0" style="mix-blend-mode: normal"><path d="M347.58177,178.132c0,15.82815 -12.87723,28.70677 -28.70677,28.70677c-15.82884,0 -28.70677,-12.87862 -28.70677,-28.70677c0,-15.82884 12.87723,-28.70677 28.70677,-28.70677c15.82953,0 28.70677,12.87862 28.70677,28.70677z" fill="url(#color-1)"/><path d="M295.39494,178.13269c0,-12.96768 10.51238,-23.48006 23.48006,-23.48006c12.96768,0 23.48006,10.51238 23.48006,23.48006c0,12.96768 -10.51238,23.48006 -23.48006,23.48006c-12.96768,0 -23.48006,-10.51238 -23.48006,-23.48006z" fill="url(#color-2)"/><text transform="translate(312.18486,189.21574) scale(0.84868,0.84868)" font-size="40" xml:space="preserve" fill="#000000" fill-rule="nonzero" stroke="none" stroke-width="1" stroke-linecap="butt" stroke-linejoin="miter" stroke-miterlimit="10" stroke-dasharray="" stroke-dashoffset="0" font-family="Sans Serif" font-weight="normal" text-anchor="start" style="mix-blend-mode: normal"><tspan x="0" dy="0">?</tspan></text></g></g></svg>