<svg version="1.1" xmlns="http://www.w3.org/2000/svg" xmlns:xlink="http://www.w3.org/1999/xlink" width="57.41354" height="57.41354" viewBox="0,0,57.41354,57.41354"><defs><linearGradient x1="291.29323" y1="180.00055" x2="348.70677" y2="180.00055" gradientUnits="userSpaceOnUse" id="color-1"><stop offset="0" stop-color="#c7a93c"/><stop offset="1" stop-color="#6d3500"/></linearGradient><radialGradient cx="320" cy="180.00055" r="23.47965" gradientUnits="userSpaceOnUse" id="color-2"><stop offset="0" stop-color="#d7df23"/><stop offset="1" stop-color="#e06c00"/></radialGradient><linearGradient x1="307.56524" y1="169.26227" x2="307.56524" y2="190.73758" gradientTransform="translate(-675.23955,-414.32223) scale(2.23512,2.23512)" gradientUnits="userSpaceOnUse" id="color-3"><stop offset="0" stop-color="#9c3400"/><stop offset="1" stop-color="#8e7500"/></linearGradient></defs><g transform="translate(-291.29323,-151.29323)"><g data-paper-data="{&quot;isPaintingLayer&quot;:true}" fill-rule="nonzero" stroke="none" stroke-width="1" stroke-linecap="butt" stroke-linejoin="miter" stroke-miterlimit="10" stroke-dasharray="" stroke-dashoffset="0" style="mix-blend-mode: normal"><path d="M348.70677,180c0,15.82815 -12.87723,28.70677 -28.70677,28.70677c-15.82884,0 -28.70677,-12.87862 -28.70677,-28.70677c0,-15.82884 12.87723,-28.70677 28.70677,-28.70677c15.82953,0 28.70677,12.87862 28.70677,28.70677z" fill="url(#color-1)"/><path d="M296.51994,180.00069c0,-12.96768 10.51238,-23.48006 23.48006,-23.48006c12.96768,0 23.48006,10.51238 23.48006,23.48006c0,12.96768 -10.51238,23.48006 -23.48006,23.48006c-12.96768,0 -23.48006,-10.51238 -23.48006,-23.48006z" fill="url(#color-2)"/><text transform="translate(302.10391,185.36883) scale(0.4474,0.4474)" font-size="40" xml:space="preserve" fill="url(#color-3)" fill-rule="nonzero" stroke="none" stroke-width="1" stroke-linecap="butt" stroke-linejoin="miter" stroke-miterlimit="10" stroke-dasharray="" stroke-dashoffset="0" font-family="Sans Serif" font-weight="normal" text-anchor="start" style="mix-blend-mode: normal"><tspan x="0" dy="0">排行</tspan></text></g></g></svg>